<svg id="Capa_1" enable-background="new 0 0 510 510" height="512" viewBox="0 0 510 510" width="512" xmlns="http://www.w3.org/2000/svg" xmlns:xlink="http://www.w3.org/1999/xlink"><linearGradient id="lg1"><stop offset="0" stop-color="#fef056"/><stop offset=".5213" stop-color="#f4d902"/><stop offset="1" stop-color="#fe9738"/></linearGradient><linearGradient id="SVGID_1_" gradientUnits="userSpaceOnUse" x1="107.028" x2="437.891" xlink:href="#lg1" y1="412.679" y2="412.679"/><linearGradient id="SVGID_2_" gradientUnits="userSpaceOnUse" x1="15.576" x2="392.105" xlink:href="#lg1" y1="412.68" y2="412.68"/><linearGradient id="lg2"><stop offset="0" stop-color="#a2e62e"/><stop offset=".5857" stop-color="#81b823"/><stop offset="1" stop-color="#037e73"/></linearGradient><linearGradient id="SVGID_3_" gradientUnits="userSpaceOnUse" x1="167.333" x2="343.009" xlink:href="#lg2" y1="322.227" y2="322.227"/><linearGradient id="SVGID_4_" gradientUnits="userSpaceOnUse" x1="150" x2="314.027" xlink:href="#lg2" y1="322.226" y2="322.226"/><linearGradient id="lg3"><stop offset="0" stop-color="#60b7ff"/><stop offset=".5857" stop-color="#0182fc"/><stop offset="1" stop-color="#2740b0"/></linearGradient><linearGradient id="SVGID_5_" gradientTransform="matrix(1 0 0 -1 0 1865.967)" gradientUnits="userSpaceOnUse" x1="10.667" x2="499.333" xlink:href="#lg3" y1="1612.858" y2="1612.858"/><linearGradient id="SVGID_6_" gradientUnits="userSpaceOnUse" x1="-85.15" x2="427.986" xlink:href="#lg3" y1="253.112" y2="253.112"/><linearGradient id="SVGID_7_" gradientUnits="userSpaceOnUse" x1="10.667" x2="533.479" xlink:href="#lg3" y1="162.283" y2="162.283"/><linearGradient id="SVGID_8_" gradientUnits="userSpaceOnUse" x1="-82.276" x2="470.828" xlink:href="#lg3" y1="162.279" y2="162.279"/><linearGradient id="lg4"><stop offset="0" stop-color="#eaf6ff"/><stop offset=".5213" stop-color="#d8ecfe"/><stop offset="1" stop-color="#b3dafe"/></linearGradient><linearGradient id="SVGID_9_" gradientUnits="userSpaceOnUse" x1="122" x2="426" xlink:href="#lg4" y1="79.186" y2="79.186"/><linearGradient id="lg5"><stop offset="0" stop-color="#d8ecfe"/><stop offset=".5667" stop-color="#b3dafe"/><stop offset=".9955" stop-color="#8ac9fe"/></linearGradient><linearGradient id="SVGID_10_" gradientUnits="userSpaceOnUse" x1="34" x2="632.686" xlink:href="#lg5" y1="217.427" y2="217.427"/><linearGradient id="SVGID_11_" gradientUnits="userSpaceOnUse" x1="46" x2="314.03" xlink:href="#lg4" y1="79.185" y2="79.185"/><linearGradient id="SVGID_12_" gradientUnits="userSpaceOnUse" x1="148" x2="464.673" xlink:href="#lg5" y1="217.427" y2="217.427"/><g><path d="m389.247 510h-268.494c-10.11 0-16.742-10.571-12.342-19.674l84.578-174.969h124.022l84.578 174.969c4.4 9.103-2.232 19.674-12.342 19.674z" fill="url(#SVGID_1_)"/><path d="m389.25 510h-40.02c10.11 0 16.74-10.57 12.34-19.67l-33.449-69.194c-15.699-32.476-48.411-53.354-84.48-53.735-14.515-.153-28.944-.603-42.961-1.351-10.48-.56-19.69-5.65-25.75-13.32l18.06-37.37h124.02l84.58 174.97c4.4 9.1-2.23 19.67-12.34 19.67z" fill="url(#SVGID_2_)"/><path d="m167.333 302.002v3.898c0 18.721 14.656 34.143 33.35 35.14 35.338 1.883 73.295 1.883 108.633 0 18.694-.996 33.35-16.419 33.35-35.14v-3.898c-54.532 5.116-120.8 5.116-175.333 0z" fill="url(#SVGID_3_)"/><path d="m317.656 303.941v1.959c0 18.721-14.656 34.143-33.35 35.14-13.647.727-27.685 1.171-41.811 1.336 22.453.263 45.131-.18 66.822-1.336 18.694-.996 33.35-16.419 33.35-35.14v-3.898c-8.102.76-16.468 1.405-25.011 1.939z" fill="url(#SVGID_4_)"/><g><path d="m499.333 227.323c0-48.621-488.667-48.621-488.667 0s109.392 88.037 244.334 88.037 244.333-39.416 244.333-88.037z" fill="url(#SVGID_5_)"/><path d="m499.333 227.327c0 .87-.038 1.74-.105 2.61-.192 2.4-.652 4.78-1.38 7.13-13.443 44.04-117.05 78.29-242.848 78.29-6.448 0-12.849-.09-19.173-.27 47.253-1.322 90.735-7.485 126.627-17.115 18.301-4.91 14.114-33.173-4.748-31.993-127.516 7.978-300.664.199-339.216-23.336-4.357-2.66-7.28-7.386-7.711-12.635-.002-.024-.004-.048-.006-.072-.067-.87-.105-1.74-.105-2.61 0-1.56.508-3.08 1.485-4.54 13.424-20.09 116.054-30.7 223.675-31.82 120.384-1.26 247.007 9.35 262.021 31.82.976 1.461 1.484 2.981 1.484 4.541z" fill="url(#SVGID_6_)"/><path d="m499.333 188.068c0 48.621-488.667 48.621-488.667 0s109.392-88.036 244.334-88.036 244.333 39.415 244.333 88.036z" fill="url(#SVGID_7_)"/><path d="m499.333 188.064c0 25.58-135.294 37.7-263.506 36.36 115.45-1.2 225.16-13.32 225.16-36.36 0-22.945-24.37-43.844-64.292-59.513-9.017-3.539-18.417 3.646-18.322 13.7.001.085.001.169.001.254 0 22.031-67.678 34.972-135.356 34.972s-135.356-18.507-135.356-34.972c0-10.48 6.142-20.34 16.931-28.89 32.654-7.45 70.54-12.18 111.234-13.31 6.324-.18 12.725-.27 19.173-.27 34.561 0 67.436 2.58 97.235 7.25 86.561 13.539 147.098 44.609 147.098 80.779z" fill="url(#SVGID_8_)"/></g><path d="m387.304 111.986c0 61.848-264.608 61.848-264.608 0s59.235-111.986 132.304-111.986 132.304 50.138 132.304 111.986z" fill="url(#SVGID_9_)"/><path d="m0 208.04v.183c0 8.082 5.462 15.141 13.288 17.159 98.985 25.526 384.439 25.526 483.424 0 7.826-2.018 13.288-9.076 13.288-17.159v-.183c0-11.368-10.542-19.746-21.639-17.279-102.877 22.867-363.845 22.867-466.722 0-11.097-2.466-21.639 5.912-21.639 17.279z" fill="url(#SVGID_10_)"/><path d="m255 0c-6.802 0-13.484.436-20.01 1.274 63.574 8.164 112.294 54.621 112.294 110.712 0 27.795-53.444 43.096-112.294 45.908 72.099 3.446 152.314-11.855 152.314-45.908 0-61.848-59.235-111.986-132.304-111.986z" fill="url(#SVGID_11_)"/><path d="m488.361 190.761c-3.659.813-7.526 1.597-11.571 2.353 4.877 3.108 8.199 8.546 8.199 14.927v.183c0 8.083-5.462 15.141-13.288 17.159-47.345 12.209-137.351 18.578-229.206 19.107 100.188.578 202.578-5.791 254.217-19.107 7.826-2.018 13.288-9.076 13.288-17.159v-.183c0-11.368-10.542-19.746-21.639-17.28z" fill="url(#SVGID_12_)"/></g></svg>